<svg xmlns="http://www.w3.org/2000/svg" width="16" height="16" id="calender"><path style="line-height:normal;text-indent:0;text-align:start;text-decoration-line:none;text-decoration-style:solid;text-decoration-color:#000;text-transform:none;block-progression:tb;isolation:auto;mix-blend-mode:normal;marker:none" d="M11 3v-.666A.334.334 0 0 0 10.666 2h-.332a.334.334 0 0 0-.334.334V3M5 3v-.666A.334.334 0 0 0 4.666 2h-.332A.334.334 0 0 0 4 2.334V3M3 4h9v1H3Zm0 2h9v7H3zm1 1v1h1V7Zm2 0v1h1V7Zm2 0v1h1V7Zm2 0v1h1V7zM4 9v1h1V9zm2 0v1h1V9zm2 0v1h1V9zm2 0v1h1V9zm-6 2v1h1v-1zm2 0v1h1v-1zm2 0v1h1v-1z" color="#000" font-family="sans-serif" font-weight="400" overflow="visible"></path></svg>